<?xml version="1.0" encoding="UTF-8" standalone="no"?>
<svg
   version="1.1"
   viewBox="0 0 1320 1388"
   width="330"
   height="347"
   id="svg498"
   sodipodi:docname="processforge-logo.svg"
   inkscape:version="1.2.2 (b0a8486541, 2022-12-01)"
   xmlns:inkscape="http://www.inkscape.org/namespaces/inkscape"
   xmlns:sodipodi="http://sodipodi.sourceforge.net/DTD/sodipodi-0.dtd"
   xmlns="http://www.w3.org/2000/svg"
   xmlns:svg="http://www.w3.org/2000/svg">
  <defs
     id="defs502" />
  <sodipodi:namedview
     id="namedview500"
     pagecolor="#ffffff"
     bordercolor="#000000"
     borderopacity="0.25"
     inkscape:showpageshadow="2"
     inkscape:pageopacity="0.0"
     inkscape:pagecheckerboard="0"
     inkscape:deskcolor="#d1d1d1"
     showgrid="false"
     inkscape:zoom="2.1457736"
     inkscape:cx="292.43532"
     inkscape:cy="-21.670506"
     inkscape:window-width="1920"
     inkscape:window-height="2025"
     inkscape:window-x="1920"
     inkscape:window-y="32"
     inkscape:window-maximized="0"
     inkscape:current-layer="svg498" />
  <path
     transform="translate(426,400)"
     d="m0 0 2 1 188-1h47l20 1 30 4 28 7 21 8 18 8 21 12 16 11 16 12 8 7v2l3 1 7 8 8 9 10 13 8 11 13 22 10 21 8 21 8 31 3 15 1 9 1 34v18l-1 24-5 28-4 15-3 8-5 15-6 12-10 21-12 19-8 10-8 11-16 16h-2l-2 4-3 1-1 3-11 9-16 11-17 11-15 8-11 5-13 5-10 4-21 7-23 5-21 3-141 1h-34l-4 1-3 9-6 37-8 45-10 58-9 55-3 15-4 16-5 8-9 10-10 8-7 7-8 7-5 4-4 4-10-3-9-4-22-11-24-14-38-24-10-8-7-6 1-6 9-29 9-39 15-84 5-27 4-26 7-32 9-27 7-13 7-11 13-15 12-13 11-10 17-12 15-9 19-10 24-7 16-4 19-2 145-1 20-2 21-6 17-9 9-7 10-10 10-12 10-18 4-11 4-25v-18l-2-9-2-13-5-15-8-15-9-12-9-10-11-9-15-8-16-7-1-2h-83l-36 1-2 5-3 19-4 23-17 102-1 13-2 1-19 1-33 4-30 8-31 12-18 10-16 9-8 6-10 7-3 3h-2l-1 3h-3l1-11 7-41 12-68 9-52 4-23 5-24 4-24 6-34 9-52 11-55z"
     fill="#F48722"
     id="path4" />
  <path
     transform="translate(611,62)"
     d="m0 0h66l20 1 16 1 3 3 7 25 3 15 4 16 8 34 3 5 18 5 26 6 24 8 5 2h10l8-6 11-11 8-11 9-10 12-13 11-13 4-4 9 1 22 11 23 13 25 14 21 14 13 9 8 6v8l-5 16-12 41-6 22v9l8 8 8 7 27 27 9 11 3 3 11-1 33-11 22-7 11-3 17-5 10 14 16 25 13 22 8 16 12 23 7 15 2 10-10 10-8 7-11 10-8 7-10 9-15 15-6 5-1 6 7 21 10 37 2 7v8l6 2 21 6 22 5 35 9 11 5 1 2 2 25 2 16v49l-4 34-3 7-5 5-15 3-35 10-20 5-15 5-2 3-2 12-6 21-5 21-3 9-2 7 1 7 12 12 7 8 8 7 11 10v2h2v2l4 2 8 8 8 7 4 5v7l-5 17-7 15-13 25-6 9-5 9-13 18-6 8-7 10-3 4-8-1-21-6-19-5-42-12h-8l-2 4-14 14-7 9-7 8-10 8-12 11v15l5 21 6 22 2 9 2 5 2 9 2 5 1 9-7 8-18 13-14 10-7 2-2 4-8 5-16 9-23 11-20 8-8-7-30-30v-2h-2l-6-8-7-8-13-13-6-1-8 3-25 8-28 7-16 2-3 9-6 24-10 42-3 14-3 5-23 2-15 2h-65l-18-3-15-1-3-4-4-18-8-31-4-16-4-21-4-3-5-2-12-3-20-7-1-7 6-28 1-3 10 1 36 8 22 4 2 4 2 10 4 16 6 22 5 21 3 9 2 9 3 2 16 1 45-1 4-4 5-19 9-30 9-31 4-10 42-8 32-8 37-12 12-4 4 1 10 9 11 11 7 8 18 18 7 8 9 10 2 1h6l13-8 18-11 11-7 7-6 1-2-1-12-5-20-6-19-5-23-3-9v-11l6-5 11-9 14-12 5-5h2v-2l8-7 19-19 13-17 6-8 2-4 13 1 52 15 15 4 17 5 1-5 11-17 9-15 9-17 3-4-2-5-23-23v-2l-4-2v-2l-4-2-20-20v-2l-4-2-11-11 2-4 4-15 7-20 4-13 10-40 4-21 1-9 15-5 44-11 19-5 10-2 4-2 1-4 1-14v-45l-2-6-68-17-24-7-3-17-6-27-8-31-9-27-6-15v-5l25-25 1-2h2l2-4h2l2-4 16-16 8-7 9-9-1-5-5-8-16-30-11-18h-8l-43 12-28 8-10 3-4-1-12-12-10-13-7-7-5-6-8-7-8-8v-2l-3-1-12-12-12-9-9-8v-2l-3-1v-11l10-36 9-29 2-8 2-4v-6l-8-7-15-9-14-8-15-8-4-2-5 1-25 25-7 8-9 9-9 11-11 11h-9l-38-13-28-8-44-9-12-3-2-4-4-17-13-51-5-21-2-1h-58l-7 1-2 5-6 27-9 37-6 23-3 2-17 3-36 7-32 9-18 6-19 7h-7l-4-3v-2h-2l-7-8-11-11-14-16-5-5-6-5v-2l-3-1-6-7-6-4-6 1-19 10-19 11-11 7-4 4 3 10 6 24 10 32 2 10 2 3v15l-13 12-14 11-14 14h-2l-2 4-12 12-10 13-11 12-8 11-3 3-11-3-45-13-19-6-9-2-4-2h-6l-4 5-9 15-11 21-4 8-3 7-1 5 67 67-2 4-3 11-10 28-8 30-8 38-2 10-30 10-60 16-4 2v65l12 4 28 7 31 9 15 4 7 1 2 2 2 16 12 48 2 5 2 9 3 8 3 7 3 9 3 11 2 4-1 5-11 12-9 11-17 17-8 7-15 16-5 5 1 5 11 22 10 16 6 12 3 4 8-1 39-11 42-11 6-1v8l-3 20-1 15-7 3-24 7-56 15-20 5-8-12-10-13-10-15-9-14-10-18-10-19-7-18-1-5v-9l10-9 8-7 13-12 10-9 1-2h2l2-4 9-10 9-11 2-2-1-6-3-10-3-9-11-44-1-7-4-2-26-6-27-7-24-7-11-3-3-7-3-16-1-4v-78l3-18 1-11 8-4 24-7 38-10 22-5 2-1 4-20 8-32 5-18 1-9-2-4-4-2-20-20-8-7-30-30-4-5 3-4 3-10 20-40 10-17 14-23 7-10 7-9 6-8 11 3 15 5 16 5 51 17 13-14 9-11 20-20 11-9 6-7-3-11-6-19-16-53-2-6v-7l11-7 14-10 19-12 18-10 23-12 16-9 15-7 4 1 9 8 7 8 16 16 9 11 11 13 10 8 7 4 10-3 15-6 14-4 37-8 5-1 4-17 11-47 7-25 2-8z"
     fill="#0C4871"
     id="path6" />
  <path
     transform="translate(426,400)"
     d="m0 0 2 1 188-1h47l20 1 30 4 28 7 21 8 18 8 21 12 16 11 16 12 8 7v2l3 1 7 8 8 9 10 13 8 11 13 22 10 21 8 21 8 31 3 15 1 9 1 34v18l-1 24-5 28-4 15-3 8-5 15-6 12-10 21-12 19-8 10-8 11-16 16h-2l-2 4-3 1-1 3-11 9-16 11-17 11-15 8-11 5-11 3 1-2 19-9 21-13 5-5 5-6 5-5 7-9 13-18 8-11 10-18 7-18 6-22 3-28v-29l-2-21-6-24-7-18-10-18-3-6-13-17-9-10v-2l-4-2-13-12-14-9-19-10-20-8-17-5-11-3-30-1h-91l-36 1-2 5-3 19-4 23-17 102-1 13-2 1-19 1-33 4-30 8-31 12-18 10-16 9-8 6-10 7-3 3h-2l-1 3h-3l1-11 7-41 12-68 9-52 4-23 5-24 4-24 6-34 9-52 11-55z"
     fill="#0471B3"
     id="path8" />
  <path
     transform="translate(629,259)"
     d="m0 0h40l21 1 37 5 32 8 26 8 16 6 30 14 22 12 22 14 14 10 9 7 12 11 9 7 10 9 8 8 3 2v2l4 2 7 8 11 12 21 27 21 33 8 14 10 21 6 12 7 20 9 29 4 17 4 20 4 24 2 35v29l-2 29-5 34-7 31-12 35-13 30-8 17-10 16-6 11-10 15-13 18-12 13-12 14-11 11-8 7-16 15-15 12-13 10-9 6-25 15-18 10-25 12-24 9-17 6-24 7-18 4-20 3-38 4h-38l-37-4-31-5-25-7-3-1 1-13 3-26 1-4 31 8 33 7 28 3h27l26-2 21-3 24-5 23-6 35-12 23-10 14-7 17-10 15-10 19-14 8-8 22-18 7-7 9-11 18-21 8-11 10-14 15-25 8-16 11-25 8-23 6-21 5-22 2-9 4-30v-52l-4-33-5-26-7-25-8-24-11-25-10-21-9-15-11-16-12-16-11-13-7-9-5-5v-2l-3-1-7-8-10-10-14-11-15-12-13-9-15-10-24-14-33-15-20-8-29-8-22-5-34-4h-49l-21 2-27 4-19 4-26 8-16 6-23 10-23 11-21 13-18 12-17 13-10 9-15 15-6 5-2 3h-2l-2 4-7 8-8 10-10 12-4 6-6 8-8 13-12 21-8 16-10 23-9 25-7 26-6 31-3 23v56l4 33 6 25 6 21 7 18 6 16 8 16 2 3-1 5-8 12-10 16-5 9-3 1-8-14-6-11-9-19-13-36-5-15-8-35-4-22-3-36v-33l4-35 7-39 8-31 8-22 10-24 14-29 10-17 8-12 7-10 12-16 13-15 7-9 4-5h2l2-4 14-14h2v-2l22-18 8-7 12-9 12-8 17-11 16-9 24-12 25-11 21-7 31-8 25-5 23-3z"
     fill="#0C4871"
     id="path10" />
  <path
     transform="translate(1227,596)"
     d="m0 0 9 1 6 3-1 2-4 1-1-2-9-3z"
     fill="#083F67"
     id="path330" />
</svg>
